<?xml version="1.0" standalone="no"?>
<!DOCTYPE svg PUBLIC "-//W3C//DTD SVG 20010904//EN"
 "http://www.w3.org/TR/2001/REC-SVG-20010904/DTD/svg10.dtd">
<svg version="1.0" xmlns="http://www.w3.org/2000/svg"
 width="100.000000pt" height="100.000000pt" viewBox="0 0 100.000000 100.000000"
 preserveAspectRatio="xMidYMid meet">
<metadata>
Created by potrace 1.11, written by Peter Selinger 2001-2013
</metadata>
<g transform="translate(0.000000,100.000000) scale(0.100000,-0.100000)"
fill="#000000" stroke="none">
<path d="M383 758 c-4 -7 -19 -42 -33 -78 l-26 -65 -44 -3 c-25 -2 -49 -8 -55
-13 -5 -6 -21 -40 -35 -77 l-26 -67 -46 -3 c-26 -2 -51 -8 -56 -15 -18 -24
-64 -167 -59 -182 6 -13 64 -15 490 -15 345 0 486 3 494 11 9 9 4 32 -18 92
-17 45 -35 87 -40 94 -6 6 -31 13 -56 15 l-46 3 -24 65 c-32 84 -36 88 -90 92
l-45 3 -24 64 c-14 35 -29 70 -35 78 -15 18 -214 19 -226 1z m197 -40 c0 -2 9
-27 20 -55 l20 -53 -124 0 -124 0 21 55 20 55 83 0 c46 0 84 -1 84 -2z m-139
-213 c10 -27 19 -51 19 -52 0 -2 -54 -3 -120 -3 -66 0 -120 3 -120 8 0 4 8 29
17 55 l17 48 84 -3 84 -3 19 -50z m79 51 c0 -2 -6 -18 -13 -35 l-13 -32 -11
36 c-11 33 -10 35 13 35 13 0 24 -2 24 -4z m237 -48 l20 -53 -58 -3 c-32 -2
-87 -2 -122 0 l-64 3 20 53 20 52 82 0 82 0 20 -52z m-483 -141 c34 -83 42
-77 -93 -77 -67 0 -121 3 -121 8 0 4 8 28 17 55 l17 47 83 0 83 0 14 -33z m81
11 c-12 -37 -20 -39 -32 -8 -11 28 -10 30 14 30 21 0 23 -3 18 -22z m243 -30
l20 -53 -59 -3 c-32 -2 -87 -2 -122 0 l-64 3 20 53 20 52 83 0 83 0 19 -52z
m71 22 c-6 -16 -12 -30 -14 -30 -2 0 -8 14 -14 30 -9 28 -8 30 14 30 22 0 23
-2 14 -30z m248 -25 l21 -55 -124 0 c-68 0 -124 2 -124 4 0 2 6 19 14 37 7 19
16 42 19 52 5 14 19 17 90 17 l84 0 20 -55z"/>
</g>
</svg>
